<?xml version="1.0" standalone="no"?>
<!DOCTYPE svg PUBLIC "-//W3C//DTD SVG 20010904//EN"
 "http://www.w3.org/TR/2001/REC-SVG-20010904/DTD/svg10.dtd">
<svg version="1.0" xmlns="http://www.w3.org/2000/svg"
 width="1024.000000pt" height="1024.000000pt" viewBox="0 0 1024.000000 1024.000000"
 preserveAspectRatio="xMidYMid meet">

<g transform="translate(0.000000,1024.000000) scale(0.100000,-0.100000)"
fill="#000000" stroke="none">
<path d="M5075 9121 c-11 -5 -27 -17 -36 -27 -14 -15 -281 -472 -536 -914 -54
-95 -58 -143 -14 -192 l29 -33 586 -3 c644 -3 629 -4 661 58 21 40 19 73 -6
123 -12 23 -110 195 -217 382 -293 511 -321 559 -335 576 -27 36 -85 49 -132
30z"/>
<path d="M2795 7721 c-28 -12 -43 -31 -122 -151 -282 -429 -445 -870 -505
-1365 -21 -181 -16 -569 11 -745 53 -346 137 -608 299 -925 135 -263 276 -457
512 -699 397 -407 857 -672 1400 -805 312 -76 376 -82 990 -91 505 -7 551 -9
628 -29 130 -33 225 -89 257 -152 8 -15 15 -49 15 -75 0 -44 -4 -51 -49 -95
-37 -35 -68 -54 -118 -71 l-68 -23 -1610 -5 c-1771 -5 -1639 0 -1670 -66 -8
-18 -15 -42 -15 -54 0 -33 36 -86 68 -99 20 -8 450 -11 1642 -9 l1615 3 78 22
c203 58 328 181 358 352 20 113 -32 245 -135 339 -50 46 -195 122 -234 122
-40 0 -16 16 75 50 363 136 722 368 1003 650 362 362 643 842 770 1314 118
436 130 952 34 1386 -81 363 -214 681 -428 1020 -109 174 -144 210 -202 210
-73 0 -116 -39 -118 -108 0 -32 13 -60 80 -163 307 -471 455 -885 495 -1384
41 -515 -79 -1053 -335 -1500 -312 -546 -768 -949 -1346 -1193 -751 -315
-1685 -257 -2403 149 -333 189 -625 448 -862 767 -266 356 -431 764 -497 1227
-8 55 -13 193 -13 355 0 229 3 284 23 410 72 444 233 845 477 1184 31 43 61
90 66 104 18 48 -10 119 -57 140 -29 14 -80 15 -109 3z"/>
<path d="M4935 7623 c-114 -13 -247 -40 -348 -69 -454 -130 -864 -487 -1075
-934 -240 -509 -241 -1086 -2 -1622 184 -412 508 -752 915 -960 331 -169 662
-248 1043 -248 642 0 1258 283 1675 768 140 163 157 189 157 239 0 55 -12 78
-50 98 -67 34 -126 13 -187 -67 -301 -395 -742 -667 -1243 -765 -121 -24 -158
-27 -365 -27 -235 -1 -306 6 -473 46 -207 48 -436 147 -617 265 -414 271 -680
684 -777 1208 -8 44 -13 148 -12 280 0 177 4 225 22 308 71 321 210 576 436
802 131 130 217 194 366 273 239 125 485 180 765 169 281 -12 491 -77 705
-220 91 -61 241 -209 298 -294 216 -320 266 -733 133 -1079 -95 -246 -287
-451 -516 -551 -136 -59 -233 -78 -400 -77 -175 1 -261 20 -390 83 -419 207
-551 769 -263 1114 193 230 558 262 770 68 193 -177 173 -493 -37 -597 -99
-48 -200 -34 -259 36 -35 42 -33 71 9 155 40 79 40 116 0 159 -64 70 -181 33
-240 -74 -27 -50 -30 -64 -29 -145 0 -121 25 -185 104 -266 261 -266 722 -91
805 306 30 142 12 275 -56 415 -82 168 -263 310 -454 356 -101 25 -287 22
-388 -5 -124 -33 -246 -101 -343 -193 -172 -163 -256 -347 -271 -588 -28 -491
283 -911 764 -1032 76 -19 115 -23 283 -23 204 0 234 4 385 52 290 93 543 311
684 590 191 382 200 824 24 1220 -67 148 -146 265 -265 388 -282 294 -671 448
-1118 443 -74 0 -148 -3 -165 -5z"/>
<path d="M1616 6055 c-77 -27 -126 -96 -126 -179 0 -82 39 -142 115 -177 73
-34 159 -15 217 47 90 96 51 256 -74 309 -45 18 -81 19 -132 0z"/>
<path d="M8485 6051 c-138 -64 -154 -236 -32 -335 34 -27 46 -31 100 -31 117
0 187 63 195 174 11 147 -133 252 -263 192z"/>
<path d="M2809 2035 c-15 -8 -34 -31 -44 -51 -23 -49 -14 -99 25 -139 l30 -30
2286 -3 c2513 -2 2325 -7 2359 58 30 59 14 125 -41 161 -28 19 -72 19 -2309
19 -1952 -1 -2284 -3 -2306 -15z"/>
</g>
</svg>
